<svg width="290" height="96" viewBox="0 0 290 96" fill="none" xmlns="http://www.w3.org/2000/svg">
<g clip-path="url(#clip0_15_18)">
<path d="M98 43.5H22V52.5H98V43.5Z" fill="#010101"/>
<path d="M268 43.5H225V52.5H268V43.5Z" fill="#010101"/>
<path d="M199.01 40H39.01V42H199.01V40Z" fill="#818181"/>
<path d="M45.33 25.21L39.01 31.61L45.41 37.94L47.4 35.93L44.39 32.96L53.88 32.9L53.87 32.15V30.9L53.86 30.15L44.37 30.21L47.34 27.2L45.33 25.21Z" fill="#010101"/>
<path d="M192.68 37.94L199.01 31.54L192.6 25.21L190.62 27.22L193.62 30.19L184.13 30.25L184.14 31L184.15 32.25V33L193.64 32.94L190.67 35.95L192.68 37.94Z" fill="#010101"/>
</g>
<defs>
<clipPath id="clip0_15_18">
<rect width="290" height="96" fill="white"/>
</clipPath>
</defs>
</svg>
