<svg width="290" height="96" viewBox="0 0 290 96" fill="none" xmlns="http://www.w3.org/2000/svg">
<g clip-path="url(#clip0_15_9)">
<path d="M65 43.5H22V52.5H65V43.5Z" fill="#010101"/>
<path d="M268 43.5H225V52.5H268V43.5Z" fill="#010101"/>
<path d="M225 47H65V49H225V47Z" fill="#010101"/>
<path d="M220.29 12.5398L219.86 10.5898L65 45.1698V47.2198L220.29 12.5398Z" fill="#807E7E"/>
<path d="M220.29 82.6698L219.86 84.5898L65 50.5998V48.5898L220.29 82.6698Z" fill="#818181"/>
<path d="M228.34 25.9699L220.61 21.3599L216.01 29.0999L218.44 30.5499L220.6 26.9099L222.93 36.1099L223.66 35.9299L224.87 35.6199L225.6 35.4299L223.26 26.2399L226.9 28.3999L228.34 25.9699Z" fill="#010101"/>
<path d="M216.01 65.3801L219.8 73.5501L227.96 69.7601L226.77 67.1901L222.93 68.9701L226.2 60.0601L225.49 59.8001L224.32 59.3701L223.61 59.1201L220.35 68.0301L218.57 64.1901L216.01 65.3801Z" fill="#010101"/>
</g>
<defs>
<clipPath id="clip0_15_9">
<rect width="290" height="96" fill="white"/>
</clipPath>
</defs>
</svg>
